<?xml version="1.0" encoding="utf-8"?>
<!-- Generator: Adobe Illustrator 24.1.1, SVG Export Plug-In . SVG Version: 6.00 Build 0)  -->
<svg version="1.1" id="Layer_1" xmlns="http://www.w3.org/2000/svg" xmlns:xlink="http://www.w3.org/1999/xlink" x="0px" y="0px"
	 viewBox="0 0 512.001 512.001" style="enable-background:new 0 0 512.001 512.001;" xml:space="preserve">
<style type="text/css">
	.st0{fill:#C9C9C9;}
</style>
<g>
	<g>
		<path class="st0" d="M294.111,256.001L504.109,46.003c10.523-10.524,10.523-27.586,0-38.109c-10.524-10.524-27.587-10.524-38.11,0
			L256,217.892L46.002,7.894C35.478-2.63,18.416-2.63,7.893,7.894s-10.524,27.586,0,38.109l209.998,209.998L7.893,465.999
			c-10.524,10.524-10.524,27.586,0,38.109c10.524,10.524,27.586,10.523,38.109,0L256,294.11l209.997,209.998
			c10.524,10.524,27.587,10.523,38.11,0c10.523-10.524,10.523-27.586,0-38.109L294.111,256.001z"/>
	</g>
</g>
</svg>
