<?xml version="1.0" encoding="utf-8"?>
<!-- Generator: Adobe Illustrator 24.0.2, SVG Export Plug-In . SVG Version: 6.00 Build 0)  -->
<svg version="1.1" id="레이어_1" xmlns="http://www.w3.org/2000/svg" xmlns:xlink="http://www.w3.org/1999/xlink" x="0px"
	 y="0px" width="20px" height="20px" viewBox="0 0 20 20" style="enable-background:new 0 0 20 20;" xml:space="preserve">
<style type="text/css">
	.st0{fill:#FFFFFF;}
</style>
<g>
	<g>
		<path class="st0" d="M11.002,10l7.855-7.855c0.276-0.276,0.276-0.725,0-1.002c-0.276-0.276-0.725-0.276-1.002,0L10,8.998
			L2.145,1.144c-0.276-0.276-0.725-0.276-1.002,0s-0.276,0.725,0,1.002L8.998,10l-7.855,7.855c-0.276,0.276-0.276,0.725,0,1.002
			c0.138,0.139,0.319,0.208,0.5,0.208s0.363-0.069,0.5-0.208L10,11.002l7.855,7.855c0.139,0.139,0.32,0.208,0.501,0.208
			c0.181,0,0.363-0.069,0.5-0.208c0.276-0.276,0.276-0.725,0-1.002L11.002,10z"/>
	</g>
</g>
</svg>
