<?xml version="1.0" encoding="utf-8"?>
<!-- Generator: Adobe Illustrator 24.0.2, SVG Export Plug-In . SVG Version: 6.00 Build 0)  -->
<svg version="1.1" id="레이어_1" xmlns="http://www.w3.org/2000/svg" xmlns:xlink="http://www.w3.org/1999/xlink" x="0px"
	 y="0px" width="20px" height="20px" viewBox="0 0 20 20" style="enable-background:new 0 0 20 20;" xml:space="preserve">
<style type="text/css">
	.st0{fill:#FFFFFF;}
</style>
<g>
	<path class="st0" d="M18.459,12.538c-0.275,0-0.498,0.223-0.498,0.498v4.423c-0.001,0.825-0.669,1.494-1.494,1.494H2.491
		c-0.825-0.001-1.493-0.669-1.494-1.494V4.479c0.001-0.825,0.669-1.493,1.494-1.494h4.423c0.275,0,0.498-0.223,0.498-0.498
		c0-0.275-0.223-0.498-0.498-0.498H2.491C1.116,1.99,0.002,3.104,0,4.479v12.98c0.002,1.375,1.116,2.489,2.491,2.491h13.976
		c1.375-0.002,2.489-1.116,2.491-2.491v-4.423C18.957,12.761,18.734,12.538,18.459,12.538z"/>
	<path class="st0" d="M18.76,0.707c-0.875-0.875-2.295-0.875-3.17,0L6.704,9.593C6.643,9.654,6.599,9.73,6.576,9.813l-1.169,4.219
		c-0.048,0.173,0.001,0.358,0.128,0.485c0.127,0.127,0.312,0.176,0.485,0.128l4.219-1.169c0.083-0.023,0.158-0.067,0.219-0.128
		l8.886-8.887c0.874-0.876,0.874-2.294,0-3.17L18.76,0.707z M7.789,9.917l7.273-7.273l2.346,2.346l-7.273,7.273L7.789,9.917z
		 M7.32,10.857l1.874,1.874l-2.592,0.718L7.32,10.857z M18.64,3.757l-0.528,0.528l-2.346-2.346l0.528-0.528
		c0.486-0.486,1.275-0.486,1.761,0l0.585,0.584C19.126,2.482,19.126,3.27,18.64,3.757z"/>
</g>
</svg>
