<?xml version="1.0" encoding="utf-8"?>
<!-- Generator: Adobe Illustrator 24.0.2, SVG Export Plug-In . SVG Version: 6.00 Build 0)  -->
<svg version="1.1" id="레이어_1" xmlns="http://www.w3.org/2000/svg" xmlns:xlink="http://www.w3.org/1999/xlink" x="0px"
	 y="0px" width="20px" height="20px" viewBox="0 0 20 20" style="enable-background:new 0 0 20 20;" xml:space="preserve">
<style type="text/css">
	.st0{fill:#FFFFFF;}
</style>
<g id="마스크_그룹_3" transform="translate(-1135 -154)">
	<g id="list" transform="translate(1135 154)">
		<g id="그룹_302">
			<g id="그룹_301">
				<path id="패스_222" class="st0" d="M1.622,1.892C0.727,1.891,0,2.617,0,3.513s0.725,1.622,1.621,1.623S3.243,4.41,3.243,3.515
					c0-0.001,0-0.001,0-0.002c0.001-0.894-0.723-1.62-1.617-1.621C1.625,1.891,1.624,1.891,1.622,1.892z"/>
				<path id="패스_223" class="st0" d="M1.622,8.378C0.727,8.377,0,9.103,0,9.999c-0.001,0.896,0.725,1.622,1.621,1.623
					s1.622-0.725,1.623-1.621c0,0,0-0.001,0-0.001c0.002-0.894-0.722-1.62-1.616-1.622C1.626,8.377,1.624,8.377,1.622,8.378z"/>
				<path id="패스_224" class="st0" d="M1.622,14.865C0.727,14.865,0,15.591,0,16.486c0,0.896,0.726,1.622,1.622,1.622
					s1.622-0.726,1.622-1.622l0,0c0.002-0.894-0.722-1.62-1.616-1.622C1.627,14.864,1.625,14.864,1.622,14.865z"/>
				<rect id="사각형_70" x="4.865" y="15.405" class="st0" width="15.135" height="2.162"/>
				<rect id="사각형_71" x="4.865" y="2.432" class="st0" width="15.135" height="2.162"/>
				<rect id="사각형_72" x="4.865" y="8.919" class="st0" width="15.135" height="2.162"/>
			</g>
		</g>
	</g>
</g>
</svg>
