<?xml version="1.0" encoding="utf-8"?>
<!-- Generator: Adobe Illustrator 24.0.2, SVG Export Plug-In . SVG Version: 6.00 Build 0)  -->
<svg version="1.1" id="레이어_1" xmlns="http://www.w3.org/2000/svg" xmlns:xlink="http://www.w3.org/1999/xlink" x="0px"
	 y="0px" width="18px" height="18px" viewBox="0 0 18 18" style="enable-background:new 0 0 18 18;" xml:space="preserve">
<style type="text/css">
	.st0{fill:#114A97;}
</style>
<g id="logout" transform="translate(0 -0.85)">
	<g id="그룹_162" transform="translate(0 0.85)">
		<g id="그룹_161" transform="translate(0 0)">
			<path id="패스_159" class="st0" d="M8.787,16.5H2.169c-0.41-0.004-0.739-0.34-0.735-0.75V2.25C1.43,1.84,1.759,1.504,2.169,1.5
				h6.618c0.41-0.004,0.739-0.339,0.735-0.749c0,0,0-0.001,0-0.001C9.526,0.34,9.197,0.004,8.788,0c0,0-0.001,0-0.001,0H2.169
				c-1.228,0.016-2.211,1.022-2.2,2.25v13.5c-0.011,1.228,0.972,2.234,2.2,2.25h6.618c0.414,0,0.75-0.336,0.75-0.75
				S9.201,16.5,8.787,16.5z"/>
		</g>
	</g>
	<g id="그룹_164" transform="translate(6.244 4.706)">
		<g id="그룹_163">
			<path id="패스_160" class="st0" d="M11.569,4.62L7.101,0.211c-0.297-0.277-0.762-0.26-1.039,0.037
				C5.796,0.533,5.799,0.976,6.069,1.257l3.193,3.151H0.706c-0.406,0-0.735,0.329-0.735,0.735S0.3,5.878,0.706,5.878h8.556
				L6.069,9.029c-0.297,0.277-0.313,0.742-0.037,1.039c0.277,0.297,0.742,0.313,1.039,0.037c0.01-0.01,0.02-0.019,0.03-0.03
				l4.468-4.409c0.289-0.284,0.292-0.749,0.008-1.038C11.574,4.625,11.571,4.623,11.569,4.62z"/>
		</g>
	</g>
</g>
</svg>
