<?xml version="1.0" encoding="utf-8"?>
<!-- Generator: Adobe Illustrator 24.1.2, SVG Export Plug-In . SVG Version: 6.00 Build 0)  -->
<svg version="1.1" id="레이어_1" xmlns="http://www.w3.org/2000/svg" xmlns:xlink="http://www.w3.org/1999/xlink" x="0px"
	 y="0px" viewBox="0 0 20 20" style="enable-background:new 0 0 20 20;" xml:space="preserve">
<style type="text/css">
	.st0{fill:#FFFFFF;}
</style>
<polygon class="st0" points="16.961,6.961 15.775,8.148 16.788,9.161 10.84,9.161 10.84,3.212 11.852,4.226 13.04,3.039 10,0 
	6.961,3.039 8.148,4.226 9.161,3.212 9.161,9.161 3.213,9.161 4.226,8.148 3.039,6.961 0,10 3.039,13.039 4.226,11.853 
	3.213,10.839 9.161,10.839 9.161,16.788 8.148,15.775 6.961,16.961 10,20 13.04,16.961 11.852,15.775 10.84,16.788 10.84,10.839 
	16.788,10.839 15.775,11.853 16.961,13.039 20,10 "/>
</svg>
