<?xml version="1.0" encoding="utf-8"?>
<!-- Generator: Adobe Illustrator 24.1.1, SVG Export Plug-In . SVG Version: 6.00 Build 0)  -->
<svg version="1.1" id="레이어_1" xmlns="http://www.w3.org/2000/svg" xmlns:xlink="http://www.w3.org/1999/xlink" x="0px"
	 y="0px" width="20px" height="20px" viewBox="0 0 20 20" style="enable-background:new 0 0 20 20;" xml:space="preserve">
<style type="text/css">
	.st0{fill:#FFFFFF;}
</style>
<g>
	<g>
		<g>
			<path class="st0" d="M17.837,6.031l-5.859-5.859C11.868,0.061,11.718,0,11.563,0H2.578C2.255,0,1.993,0.262,1.993,0.586v18.829
				C1.993,19.738,2.255,20,2.578,20h14.844c0.324,0,0.586-0.262,0.586-0.586V6.445C18.008,6.29,17.946,6.141,17.837,6.031z
				 M16.836,18.828H3.165V1.172h8.156l5.516,5.516L16.836,18.828L16.836,18.828z"/>
		</g>
	</g>
	<g>
		<g>
			<path class="st0" d="M11.953,9.414h-1.367V8.047c0-0.324-0.262-0.586-0.586-0.586S9.414,7.723,9.414,8.047v1.367H8.048
				c-0.324,0-0.586,0.262-0.586,0.586s0.262,0.586,0.586,0.586h1.367v1.367c0,0.324,0.262,0.586,0.586,0.586
				s0.586-0.262,0.586-0.586v-1.367h1.367c0.324,0,0.586-0.262,0.586-0.586S12.277,9.414,11.953,9.414z"/>
		</g>
	</g>
</g>
</svg>
