<?xml version="1.0" encoding="utf-8"?>
<!-- Generator: Adobe Illustrator 24.1.3, SVG Export Plug-In . SVG Version: 6.00 Build 0)  -->
<svg version="1.1" id="레이어_1" xmlns="http://www.w3.org/2000/svg" xmlns:xlink="http://www.w3.org/1999/xlink" x="0px"
	 y="0px" width="15px" height="15px" viewBox="0 0 15 15" style="enable-background:new 0 0 15 15;" xml:space="preserve">
<style type="text/css">
	.st0{fill:#CFE5F9;}
	.st1{fill:#444444;}
</style>
<g>
	<circle class="st0" cx="5.87925" cy="5.96029" r="5.46674"/>
	<path id="패스_201" class="st1" d="M10.43784,9.574c2.03947-2.52162,1.6484-6.21913-0.87322-8.2586
		S3.34602-0.333,1.30655,2.18862s-1.6484,6.21913,0.87322,8.2586c2.15358,1.74161,5.23181,1.74161,7.38539,0l0.20947-0.16929
		l4.71323,4.71323L15,14.51223l-4.73091-4.73091L10.43784,9.574z M5.88264,11.05633c-2.85269,0-5.16484-2.31269-5.16484-5.16484
		s2.31269-5.16485,5.16484-5.16485s5.16484,2.31269,5.16484,5.16484c-0.00321,2.85162-2.31429,5.16216-5.16538,5.16484
		C5.8821,11.05632,5.88264,11.05632,5.88264,11.05633z"/>
</g>
</svg>
