<?xml version="1.0" encoding="utf-8"?>
<!-- Generator: Adobe Illustrator 24.0.2, SVG Export Plug-In . SVG Version: 6.00 Build 0)  -->
<svg version="1.1" id="레이어_1" xmlns="http://www.w3.org/2000/svg" xmlns:xlink="http://www.w3.org/1999/xlink" x="0px"
	 y="0px" width="20px" height="20px" viewBox="0 0 20 20" style="enable-background:new 0 0 20 20;" xml:space="preserve">
<style type="text/css">
	.st0{fill:#FFFFFF;}
</style>
<g>
	
		<rect x="8.222" y="10.718" transform="matrix(0.0367 -0.9993 0.9993 0.0367 0.8938 23.9304)" class="st0" width="9.275" height="1.567"/>
	<rect x="9.217" y="6.867" class="st0" width="1.567" height="9.269"/>
	
		<rect x="6.357" y="6.863" transform="matrix(0.9993 -0.0366 0.0366 0.9993 -0.4161 0.269)" class="st0" width="1.567" height="9.275"/>
	<path class="st0" d="M13.864,3.003V1.305c0-0.72-0.586-1.305-1.305-1.305H7.441c-0.72,0-1.305,0.586-1.305,1.305v1.697H0.679v1.567
		h1.632l1.295,14.716C3.642,19.69,3.98,20,4.386,20h11.201c0.406,0,0.745-0.31,0.78-0.715l1.295-14.716h1.659V3.003H13.864z
		 M7.702,1.567h4.595v1.436H7.702V1.567z M14.87,18.433H5.104L3.884,4.569H16.09L14.87,18.433z"/>
</g>
</svg>
