<?xml version="1.0" encoding="utf-8"?>
<!-- Generator: Adobe Illustrator 24.0.2, SVG Export Plug-In . SVG Version: 6.00 Build 0)  -->
<svg version="1.1" id="레이어_1" xmlns="http://www.w3.org/2000/svg" xmlns:xlink="http://www.w3.org/1999/xlink" x="0px"
	 y="0px" width="480px" height="480px" viewBox="0 0 480 480" style="enable-background:new 0 0 480 480;" xml:space="preserve">
<style type="text/css">
	.st0{fill:#114A97;}
	.st1{fill:#FFFFFF;}
</style>
<path class="st0" d="M480,240c0,132.548-107.452,234-240,234S0,372.548,0,240S107.452,0,240,0S480,107.452,480,240z"/>
<path class="st1" d="M296,256H184c-48.578,0.059-87.941,39.422-88,88v88.011C136.112,462.141,185.969,480,240,480
	s103.888-17.859,144-47.989V344C383.941,295.422,344.578,256.059,296,256z"/>
<path class="st1" d="M240,64c-44.184,0-80,35.816-80,80s35.816,80,80,80s80-35.816,80-80C319.953,99.836,284.164,64.047,240,64z"/>
</svg>
